<svg id="Layer_1" data-name="Layer 1" xmlns="http://www.w3.org/2000/svg" width="244" height="126.3" viewBox="0 0 244 126.3"><path d="M230.8,0a13.3,13.3,0,0,0-13.3,13.2,13.8,13.8,0,0,0,6.4,11.5l-8.4,26.5a28.9,28.9,0,0,0-4.3-1l-5.4-20.4a13.3,13.3,0,1,0-19.6-11.7,13.5,13.5,0,0,0,13.2,13.2h.3l5.1,19.1c-8.4,2-15.3,9.9-21.6,17.1s-14.1,15.8-22.5,17c-2-22.9-9.6-41-22.9-53.9C116.4,9.7,88.7,9.9,87.7,9.9A60.2,60.2,0,0,0,27.6,70a42.9,42.9,0,0,0,12.5,30.3C19.2,106.4,6,113.5.6,121.2a2.9,2.9,0,0,0-.2,3.3,3.1,3.1,0,0,0,2.8,1.8H216.5a3.3,3.3,0,0,0,.8-6.4c-5.4-1.5-13.8-5.3-15.6-8.9a2.7,2.7,0,0,1,0-1.8c.8-1.8,3.9-5.6,7.2-9.4,8.6-10.2,20.3-24.4,18.8-35.6A14.2,14.2,0,0,0,221.1,54h-.3l8.9-27.5h1.1A13.3,13.3,0,0,0,244,13.2,13.3,13.3,0,0,0,230.8,0ZM192.3,18.1a7.2,7.2,0,0,1,7.1-7.2,7.1,7.1,0,1,1-7.1,7.2ZM87.4,16.5h0c2.3,0,27,.6,45.6,18.9,13.7,13.5,20.9,33.3,21.6,58.8H105.8a43.5,43.5,0,0,0,7.3-23.9,26,26,0,1,0-51.9,0,3.1,3.1,0,0,0,3.1,3,3.2,3.2,0,0,0,3-3A19.6,19.6,0,0,1,86.9,50.7a19.4,19.4,0,0,1,19.6,19.6,36.7,36.7,0,0,1-73.3,0C33.7,40.5,57.6,16.5,87.4,16.5ZM221.6,65.2c1.3,8.6-9.9,21.9-17.3,30.8-3.8,4.6-6.9,8.1-7.9,10.7a7.7,7.7,0,0,0,0,7.1c1,2.3,3.3,4.6,5.8,6.4H10.8c6.9-5.1,18.8-10.2,34.9-14.5a42.7,42.7,0,0,0,54.7-5.1h57.3a3.1,3.1,0,0,0,3-3.1c0-2,0-4.3-.2-6.4,10.9-1.5,19.3-10.9,27-19.3,11.2-12.7,18.6-19.9,30-12.2A6.9,6.9,0,0,1,221.6,65.2Zm9.2-44.8a7.2,7.2,0,0,1-7.2-7.2,7.2,7.2,0,0,1,14.3,0A7.1,7.1,0,0,1,230.8,20.4Z" fill="#fff"/></svg>